# xmcd
#
# Track frame offsets:
# 150
# 46145
# 67405
# 93162
# 135244
# 172600
# 206138
#
# Disc length: 3458 seconds
#
# Revision: 0
# Processed by: cddbd v1.5.2PL0 Copyright (c) Steve Scherf et al.
# Submitted via: Audion 3.0.2 (http://www.panic.com/audion/)
#
DISCID=570d8007
DTITLE=Karl Denson's Tiny Universe - Live at 2005 New Orleans Jazz and Heritage Festival
DYEAR=1900
DGENRE=
TTITLE0=Everything
TTITLE1=Red
TTITLE2=Groovy Thing
TTITLE3=Freedom
TTITLE4=Mary
TTITLE5=Once You're There
TTITLE6=What You Want
EXTD=
EXTT0=
EXTT1=
EXTT2=
EXTT3=
EXTT4=
EXTT5=
EXTT6=
PLAYORDER=
